<svg width="361" height="362" viewBox="0 0 361 362" fill="none" xmlns="http://www.w3.org/2000/svg">
<rect x="0.134766" y="0.812317" width="360.342" height="360.342" rx="64.0608" fill="#181818"/>
<path d="M124.841 238.2L105.483 242.617V117.247L124.841 121.673V238.2Z" fill="#F68536"/>
<path d="M148.994 245.6L124.841 252.464V107.572L148.994 114.428V245.6V245.6ZM179.978 253.203L148.994 264.541V95.4943L179.978 106.828V253.203ZM262.822 238.578L179.978 280V80.0001L262.822 121.422V238.578Z" fill="#F68536"/>
<path d="M163.463 88.2583L179.977 80.0001V280L163.463 271.744V88.2583V88.2583ZM136.21 101.883L148.994 95.4917V264.508L136.21 258.117V101.883ZM114.658 112.661L124.841 107.569V252.431L114.658 247.336V112.661ZM105.483 117.247L97.1772 121.4V238.603L105.483 242.753V117.247Z" fill="#9D5025"/>
</svg>
