<svg width="362" height="362" viewBox="0 0 362 362" fill="none" xmlns="http://www.w3.org/2000/svg">
<rect x="0.942383" y="1.06152" width="360.342" height="360.342" rx="64.0608" fill="#181818"/>
<path d="M81.1514 254.461C81.1514 268.704 92.6975 280.249 106.94 280.249H255.362C269.607 280.249 281.151 268.703 281.151 254.461V106.038C281.151 91.7936 269.605 80.249 255.363 80.249H106.94C92.6959 80.249 81.1514 91.7951 81.1514 106.037V254.46V254.461Z" fill="#563D7C"/>
<path d="M164.087 168.716V140.394H189.018C191.393 140.394 193.682 140.591 195.887 140.987C198.091 141.383 200.042 142.089 201.738 143.107C203.434 144.125 204.791 145.538 205.809 147.347C206.826 149.156 207.335 151.474 207.335 154.3C207.335 159.388 205.809 163.063 202.755 165.324C199.703 167.586 195.802 168.716 191.053 168.716H164.087V168.716ZM137.46 119.702V240.796H196.141C201.569 240.796 206.855 240.118 211.999 238.761C217.144 237.404 221.723 235.312 225.737 232.486C229.75 229.659 232.945 226.012 235.319 221.547C237.694 217.08 238.881 211.794 238.881 205.689C238.881 198.113 237.043 191.64 233.369 186.27C229.694 180.899 224.125 177.14 216.662 174.991C222.09 172.391 226.189 169.055 228.959 164.985C231.729 160.915 233.114 155.827 233.114 149.721C233.114 144.068 232.181 139.319 230.316 135.475C228.45 131.631 225.821 128.55 222.429 126.232C219.038 123.914 214.967 122.246 210.218 121.229C205.47 120.211 200.212 119.702 194.445 119.702H137.46V119.702ZM164.087 220.104V186.863H193.088C198.855 186.863 203.491 188.191 206.996 190.849C210.501 193.506 212.254 197.944 212.254 204.162C212.254 207.329 211.716 209.929 210.642 211.964C209.568 213.999 208.127 215.611 206.317 216.797C204.509 217.985 202.416 218.833 200.042 219.342C197.667 219.85 195.18 220.104 192.58 220.104H164.087V220.104Z" fill="white"/>
</svg>
