<svg width="362" height="362" viewBox="0 0 362 362" fill="none" xmlns="http://www.w3.org/2000/svg">
<rect x="0.688477" y="0.8125" width="360.342" height="360.342" rx="64.0608" fill="#181818"/>
<path d="M268.581 138.827C268.58 135.473 267.863 132.51 266.412 129.966C264.987 127.465 262.853 125.369 259.991 123.711C236.365 110.088 212.716 96.5071 189.098 82.8703C182.73 79.1942 176.557 79.3283 170.236 83.057C160.832 88.603 113.75 115.577 99.7204 123.704C93.9425 127.048 91.131 132.167 91.1296 138.821C91.1206 166.217 91.1296 193.613 91.1206 221.01C91.122 224.291 91.8087 227.197 93.1954 229.702C94.6209 232.279 96.7846 234.433 99.7128 236.128C113.743 244.254 160.832 271.226 170.234 276.774C176.557 280.504 182.73 280.638 189.1 276.96C212.719 263.323 236.369 249.742 259.999 236.119C262.927 234.425 265.091 232.27 266.516 229.695C267.901 227.19 268.589 224.284 268.59 221.003C268.59 221.003 268.59 166.224 268.581 138.827" fill="#5C8DBC"/>
<path d="M180.127 179.649L93.1958 229.702C94.6214 232.279 96.785 234.433 99.7132 236.128C113.744 244.254 160.832 271.227 170.234 276.774C176.557 280.505 182.731 280.638 189.1 276.961C212.719 263.323 236.37 249.743 259.999 236.12C262.928 234.425 265.091 232.27 266.517 229.695L180.127 179.649" fill="#1A4674"/>
<path d="M154.379 194.475C159.437 203.306 168.947 209.262 179.856 209.262C190.832 209.262 200.395 203.23 205.428 194.305L180.127 179.649L154.379 194.475" fill="#1A4674"/>
<path d="M268.582 138.827C268.58 135.473 267.863 132.51 266.413 129.966L180.127 179.649L266.517 229.695C267.901 227.19 268.589 224.284 268.591 221.003C268.591 221.003 268.591 166.225 268.582 138.827" fill="#1B598E"/>
<path d="M263.831 183.226H257.08V189.978H250.328V183.226H243.578V176.476H250.328V169.726H257.08V176.476H263.831V183.226ZM239.198 183.226H232.448V189.978H225.697V183.226H218.947V176.476H225.697V169.726H232.448V176.476H239.198V183.226Z" fill="white"/>
<path d="M205.428 194.305C200.396 203.23 190.832 209.262 179.856 209.262C168.947 209.262 159.438 203.306 154.379 194.475C151.838 190.044 150.504 185.024 150.509 179.915C150.509 163.708 163.649 150.569 179.856 150.569C190.695 150.569 200.154 156.451 205.237 165.192L230.888 150.421C220.693 132.821 201.658 120.981 179.856 120.981C147.306 120.981 120.921 147.367 120.921 179.915C120.921 190.593 123.762 200.607 128.726 209.244C138.896 226.937 157.985 238.85 179.856 238.85C201.767 238.85 220.886 226.889 231.041 209.144L205.428 194.305Z" fill="white"/>
</svg>
