<svg width="361" height="360" viewBox="0 0 361 360" fill="none" xmlns="http://www.w3.org/2000/svg">
<rect x="0.239258" width="360" height="360" rx="64" fill="#181818"/>
<path d="M269.175 80L253.109 259.979L180.892 280L108.874 260.007L92.8252 80H269.175Z" fill="#264DE4"/>
<path d="M239.355 248.519L253.084 94.7188H181V264.697L239.355 248.519Z" fill="#2965F1"/>
<path d="M129.617 161.48L131.596 183.557H181V161.48H129.617Z" fill="#EBEBEB"/>
<path d="M181 116.795H180.923H125.641L127.648 138.872H181V116.795Z" fill="#EBEBEB"/>
<path d="M181 241.786V218.817L180.903 218.842L156.316 212.203L154.744 194.596H142.796H132.582L135.675 229.26L180.898 241.814L181 241.786Z" fill="#EBEBEB"/>
<path d="M208.109 183.557L205.547 212.189L180.924 218.835V241.803L226.183 229.26L226.515 225.53L231.703 167.408L232.242 161.48L236.227 116.795H180.924V138.872H212.033L210.024 161.48H180.924V183.557H208.109Z" fill="white"/>
</svg>
