<svg width="362" height="362" viewBox="0 0 362 362" fill="none" xmlns="http://www.w3.org/2000/svg">
<rect x="0.790527" y="0.812256" width="360.342" height="360.342" rx="64.0608" fill="#181818"/>
<path d="M203.611 152.239L183.61 170.863L165.043 133.397L174.634 111.855C177.059 107.558 181.023 107.501 183.447 111.855L203.611 152.239Z" fill="#FFA000"/>
<path d="M183.618 170.855L108.8 240.443L165.051 133.397L183.618 170.855Z" fill="#F57F17"/>
<path d="M225.542 123.757C229.126 120.344 232.815 121.495 233.747 126.343L253.197 239.502L188.685 278.233C186.423 279.497 180.423 279.992 180.423 279.992C180.423 279.992 174.966 279.327 172.875 278.176L108.8 240.443L225.542 123.757Z" fill="#FFCA28"/>
<path d="M165.051 133.397L108.8 240.442L133.869 83.9808C134.809 79.1324 137.558 78.6379 140.039 82.9349L165.051 133.397Z" fill="#FFA000"/>
</svg>
