<svg width="362" height="362" viewBox="0 0 362 362" fill="none" xmlns="http://www.w3.org/2000/svg">
<rect x="0.947754" y="1.06104" width="360.342" height="360.342" rx="64.0608" fill="#181818"/>
<path d="M180.051 82.7173C124.83 82.7173 80.0508 127.488 80.0508 182.718C80.0508 226.901 108.704 264.385 148.437 277.608C153.435 278.534 155.27 275.439 155.27 272.798C155.27 270.413 155.177 262.535 155.134 254.179C127.313 260.229 121.443 242.381 121.443 242.381C116.894 230.822 110.34 227.749 110.34 227.749C101.267 221.542 111.024 221.669 111.024 221.669C121.066 222.375 126.353 231.975 126.353 231.975C135.272 247.263 149.747 242.843 155.454 240.288C156.351 233.824 158.943 229.413 161.802 226.916C139.591 224.387 116.242 215.812 116.242 177.495C116.242 166.578 120.148 157.657 126.546 150.654C125.507 148.135 122.085 137.964 127.514 124.19C127.514 124.19 135.912 121.502 155.021 134.44C162.998 132.224 171.553 131.113 180.051 131.076C188.55 131.113 197.111 132.224 205.103 134.44C224.19 121.502 232.576 124.19 232.576 124.19C238.019 137.964 234.594 148.135 233.556 150.654C239.967 157.657 243.847 166.577 243.847 177.495C243.847 215.903 220.454 224.361 198.186 226.836C201.773 229.94 204.969 236.026 204.969 245.355C204.969 258.735 204.853 269.504 204.853 272.798C204.853 275.459 206.653 278.577 211.722 277.595C251.434 264.357 280.051 226.886 280.051 182.718C280.051 127.488 235.278 82.7173 180.051 82.7173Z" fill="white"/>
<path d="M117.505 225.17C117.285 225.667 116.503 225.816 115.791 225.475C115.066 225.149 114.658 224.472 114.893 223.973C115.109 223.461 115.892 223.319 116.616 223.662C117.343 223.988 117.757 224.672 117.505 225.17V225.17ZM122.424 229.559C121.947 230.002 121.015 229.796 120.382 229.097C119.728 228.4 119.605 227.468 120.089 227.019C120.581 226.577 121.485 226.784 122.141 227.482C122.795 228.187 122.922 229.113 122.423 229.56L122.424 229.559ZM125.799 235.175C125.186 235.601 124.183 235.201 123.564 234.312C122.952 233.423 122.952 232.357 123.578 231.929C124.199 231.502 125.186 231.886 125.813 232.769C126.425 233.673 126.425 234.739 125.798 235.175L125.799 235.175ZM131.505 241.679C130.957 242.283 129.79 242.121 128.935 241.296C128.062 240.49 127.818 239.346 128.367 238.741C128.922 238.135 130.096 238.306 130.957 239.124C131.825 239.928 132.09 241.081 131.506 241.679H131.505ZM138.881 243.875C138.64 244.658 137.515 245.014 136.383 244.681C135.252 244.338 134.512 243.421 134.74 242.629C134.975 241.841 136.104 241.47 137.246 241.826C138.375 242.167 139.117 243.078 138.882 243.875H138.881ZM147.276 244.806C147.304 245.631 146.343 246.315 145.154 246.33C143.958 246.355 142.991 245.688 142.979 244.877C142.979 244.044 143.917 243.367 145.113 243.347C146.302 243.323 147.276 243.986 147.276 244.806V244.806ZM155.522 244.49C155.665 245.294 154.838 246.121 153.658 246.341C152.497 246.552 151.422 246.056 151.274 245.258C151.13 244.433 151.972 243.607 153.131 243.393C154.313 243.188 155.371 243.672 155.522 244.49" fill="white"/>
</svg>
