<svg width="360" height="360" viewBox="0 0 360 360" fill="none" xmlns="http://www.w3.org/2000/svg">
<rect width="360" height="360" rx="64" fill="#181818"/>
<path d="M107.856 260.068L91.8135 80H268.187L252.144 259.971L179.854 280" fill="#E44D26"/>
<path d="M180 264.688V94.7803H252.095L238.337 248.402" fill="#F16529"/>
<path d="M124.58 116.802H180.001V138.873H148.79L150.832 161.478H180.001V183.501H130.608L124.58 116.802ZM131.581 194.585H153.749L155.304 212.232L180.001 218.844V241.887L134.692 229.247" fill="#EBEBEB"/>
<path d="M235.226 116.802H179.902V138.873H233.184L235.226 116.802ZM231.191 161.478H179.902V183.549H207.126L204.55 212.232L179.902 218.844V241.79L225.114 229.247" fill="white"/>
</svg>
