<svg width="361" height="362" viewBox="0 0 361 362" fill="none" xmlns="http://www.w3.org/2000/svg">
<rect x="0.34375" y="0.8125" width="360.342" height="360.342" rx="64.0608" fill="#181818"/>
<path d="M280 80H80V280H280V80Z" fill="#F7DF1E"/>
<path d="M214.349 236.251C218.377 242.829 223.618 247.664 232.888 247.664C240.676 247.664 245.65 243.771 245.65 238.394C245.65 231.949 240.539 229.667 231.968 225.918L227.269 223.902C213.707 218.124 204.698 210.886 204.698 195.584C204.698 181.489 215.437 170.759 232.222 170.759C244.171 170.759 252.761 174.918 258.952 185.806L244.317 195.203C241.095 189.425 237.618 187.149 232.222 187.149C226.717 187.149 223.228 190.641 223.228 195.203C223.228 200.841 226.72 203.124 234.783 206.616L239.482 208.629C255.45 215.476 264.466 222.457 264.466 238.152C264.466 255.073 251.174 264.343 233.323 264.343C215.869 264.343 204.593 256.025 199.076 245.124L214.349 236.251ZM147.958 237.879C150.91 243.118 153.596 247.546 160.053 247.546C166.228 247.546 170.123 245.13 170.123 235.737V171.832H188.917V235.991C188.917 255.451 177.507 264.308 160.853 264.308C145.806 264.308 137.091 256.521 132.66 247.141L147.958 237.879Z" fill="black"/>
</svg>
