<svg width="361" height="362" viewBox="0 0 361 362" fill="none" xmlns="http://www.w3.org/2000/svg">
<rect x="0.448242" y="0.812256" width="360.342" height="360.342" rx="64.0608" fill="#181818"/>
<path d="M80.999 187.217V100.617L155.999 143.917V172.783L105.999 143.917V201.65L80.999 187.217Z" fill="#00B0FF"/>
<path d="M155.999 143.917L230.999 100.617V187.217L180.999 216.083L155.999 201.65L205.999 172.783V143.917L155.999 172.783V143.917Z" fill="#0081CB"/>
<path d="M155.999 201.65V230.517L205.999 259.384V230.517L155.999 201.65Z" fill="#00B0FF"/>
<path d="M205.999 259.383L280.999 216.083V158.35L255.999 172.783V201.65L205.999 230.517V259.383ZM255.999 143.917V115.05L280.999 100.617V129.483L255.999 143.917Z" fill="#0081CB"/>
</svg>
