<svg width="362" height="362" viewBox="0 0 362 362" fill="none" xmlns="http://www.w3.org/2000/svg">
<rect x="0.687012" y="0.812256" width="360.342" height="360.342" rx="64.0608" fill="#181818"/>
<path d="M179.374 80.5463L184.712 90.5705C185.912 92.4204 187.211 94.0578 188.743 95.5826C193.232 100.016 197.416 104.747 201.267 109.744C210.31 121.618 216.409 134.805 220.765 149.066C223.378 157.778 224.796 166.715 224.903 175.752C225.34 202.768 216.078 225.967 197.404 245.246C194.367 248.304 191.086 251.109 187.593 253.633C185.743 253.633 184.868 252.215 184.105 250.909C182.717 248.487 181.793 245.827 181.381 243.065C180.724 239.797 180.293 236.528 180.506 233.154V231.629C180.356 231.304 178.725 81.315 179.374 80.5463V80.5463Z" fill="#599636"/>
<path d="M179.375 80.215C179.156 79.7775 178.937 80.1088 178.718 80.3212C178.825 82.5086 178.062 84.4584 176.868 86.3208C175.556 88.1707 173.819 89.5893 172.075 91.1142C162.388 99.5011 154.764 109.632 148.658 120.962C140.534 136.211 136.346 152.553 135.159 169.758C134.615 175.964 137.121 197.863 139.077 204.181C144.415 220.955 154.001 235.01 166.419 247.209C169.469 250.146 172.731 252.871 176.106 255.49C177.087 255.49 177.193 254.615 177.418 253.965C177.849 252.574 178.177 251.154 178.4 249.715L180.587 233.379L179.375 80.215Z" fill="#6CAC48"/>
<path d="M184.711 260.27C184.93 257.771 186.13 255.696 187.436 253.627C186.124 253.083 185.149 252.002 184.386 250.796C183.729 249.654 183.184 248.451 182.761 247.203C181.236 242.628 180.911 237.828 180.474 233.154V230.323C179.93 230.76 179.818 234.46 179.818 235.01C179.5 239.951 178.844 244.864 177.855 249.715C177.53 251.677 177.312 253.633 176.105 255.377C176.105 255.596 176.105 255.814 176.212 256.139C178.174 261.914 178.712 267.795 179.043 273.788V275.975C179.043 278.588 178.937 278.038 181.105 278.913C181.98 279.238 182.955 279.35 183.83 280C184.486 280 184.592 279.456 184.592 279.019L184.267 275.425V265.401C184.161 263.651 184.486 261.914 184.705 260.277L184.711 260.27Z" fill="#C2BFBF"/>
</svg>
