<svg width="362" height="362" viewBox="0 0 362 362" fill="none" xmlns="http://www.w3.org/2000/svg">
<rect x="0.441406" y="0.895508" width="360.342" height="360.342" rx="64.0608" fill="#181818"/>
<path d="M181.203 197.716C190.941 197.716 198.835 189.822 198.835 180.083C198.835 170.345 190.941 162.451 181.203 162.451C171.465 162.451 163.57 170.345 163.57 180.083C163.57 189.822 171.465 197.716 181.203 197.716Z" fill="#61DAFB"/>
<path d="M181.203 216.208C233.457 216.208 275.816 200.035 275.816 180.083C275.816 160.132 233.457 143.958 181.203 143.958C128.95 143.958 86.5898 160.132 86.5898 180.083C86.5898 200.035 128.95 216.208 181.203 216.208Z" stroke="#61DAFB" stroke-width="10.0095"/>
<path d="M149.918 198.146C176.045 243.399 211.231 271.996 228.51 262.021C245.788 252.045 238.615 207.274 212.488 162.021C186.362 116.768 151.175 88.1701 133.896 98.1458C116.618 108.121 123.791 152.893 149.918 198.146Z" stroke="#61DAFB" stroke-width="10.0095"/>
<path d="M149.918 162.021C123.791 207.273 116.618 252.045 133.896 262.021C151.175 271.996 186.362 243.399 212.488 198.146C238.615 152.893 245.788 108.121 228.51 98.1457C211.231 88.1701 176.045 116.768 149.918 162.021Z" stroke="#61DAFB" stroke-width="10.0095"/>
</svg>
