<svg width="361" height="361" viewBox="0 0 361 361" fill="none" xmlns="http://www.w3.org/2000/svg">
<rect x="0.791016" y="0.811523" width="360" height="360" rx="64" fill="#181818"/>
<path d="M219.579 217.669C226.96 216.905 232.559 210.542 232.304 202.906C232.05 195.271 225.687 189.163 218.052 189.163H217.543C209.652 189.417 203.545 196.034 203.799 203.924C204.054 207.742 205.581 211.051 207.871 213.341C199.218 230.395 185.984 242.866 166.132 253.301C152.643 260.427 138.645 262.973 124.648 261.191C113.195 259.664 104.287 254.574 98.6867 246.174C90.543 233.703 89.7797 220.213 96.6516 206.724C101.488 197.052 109.122 189.926 113.958 186.363C112.94 183.054 111.413 177.455 110.649 173.383C73.7453 200.107 77.5633 236.249 88.7617 253.301C97.1602 266.027 114.213 273.917 133.046 273.917C138.136 273.917 143.226 273.408 148.316 272.136C180.894 265.773 205.581 246.429 219.579 217.669V217.669ZM264.373 186.109C245.03 163.456 216.525 150.985 183.948 150.985H179.876C177.585 146.404 172.749 143.349 167.405 143.349H166.895C159.006 143.604 152.899 150.221 153.152 158.112C153.407 165.747 159.77 171.856 167.405 171.856H167.913C173.513 171.601 178.349 168.038 180.384 163.202H184.966C204.309 163.202 222.633 168.801 239.177 179.745C251.902 188.145 261.064 199.089 266.154 212.324C270.481 223.013 270.226 233.449 265.645 242.357C258.519 255.846 246.557 263.227 230.777 263.227C220.597 263.227 210.926 260.173 205.835 257.882C203.036 260.427 197.945 264.499 194.382 267.045C205.327 272.135 216.525 274.935 227.214 274.935C251.647 274.935 269.717 261.445 276.589 247.956C283.97 233.194 283.46 207.742 264.373 186.109V186.109ZM135.082 221.995C135.337 229.631 141.699 235.738 149.334 235.738H149.844C157.734 235.484 163.841 228.866 163.587 220.977C163.333 213.341 156.97 207.233 149.334 207.233H148.826C148.316 207.233 147.552 207.233 147.045 207.487C136.609 190.18 132.283 171.346 133.81 150.984C134.827 135.713 139.918 122.478 148.826 111.534C156.206 102.117 170.459 97.5353 180.131 97.2813C207.108 96.772 218.56 130.368 219.324 143.858C222.633 144.621 228.232 146.403 232.05 147.676C228.995 106.445 203.545 85.0649 179.113 85.0649C156.206 85.0649 135.082 101.609 126.683 126.042C114.976 158.62 122.611 189.926 136.863 214.614C135.591 216.395 134.827 219.195 135.082 221.995V221.995Z" fill="#764ABC"/>
</svg>
