<svg width="362" height="361" viewBox="0 0 362 361" fill="none" xmlns="http://www.w3.org/2000/svg">
<rect x="0.442383" y="0.405762" width="360" height="360" rx="64.0608" fill="#181818"/>
<path d="M253.419 192.228C246.441 192.265 240.377 193.945 235.299 196.429C233.436 192.74 231.573 189.452 231.245 187.041C230.879 184.228 230.441 182.511 230.879 179.15C231.318 175.789 233.29 171.004 233.254 170.638C233.217 170.273 232.815 168.556 228.797 168.52C224.779 168.483 221.308 169.287 220.906 170.346C220.505 171.406 219.737 173.817 219.226 176.301C218.532 179.954 211.189 192.995 206.988 199.827C205.637 197.16 204.468 194.822 204.212 192.959C203.847 190.146 203.408 188.429 203.847 185.068C204.285 181.707 206.258 176.922 206.221 176.556C206.184 176.191 205.783 174.474 201.764 174.438C197.746 174.401 194.275 175.205 193.874 176.264C193.472 177.324 193.033 179.808 192.193 182.219C191.353 184.63 181.599 206.402 179.042 212.028C177.727 214.914 176.595 217.215 175.791 218.786C175.791 218.786 175.754 218.896 175.645 219.078C174.951 220.43 174.549 221.16 174.549 221.16C174.549 221.16 174.549 221.16 174.549 221.197C174.001 222.183 173.416 223.097 173.124 223.097C172.905 223.097 172.503 220.466 173.197 216.886C174.658 209.325 178.129 197.562 178.092 197.16C178.092 196.941 178.75 194.895 175.827 193.835C172.978 192.776 171.955 194.53 171.699 194.53C171.444 194.53 171.261 195.151 171.261 195.151C171.261 195.151 174.439 181.926 165.197 181.926C159.425 181.926 151.461 188.246 147.516 193.945C145.032 195.297 139.735 198.183 134.073 201.288C131.917 202.493 129.689 203.699 127.607 204.831C127.461 204.685 127.315 204.502 127.168 204.356C115.99 192.411 95.3136 183.972 96.1903 167.935C96.5191 162.09 98.5283 146.747 135.899 128.117C166.658 112.956 191.134 117.157 195.371 126.473C201.435 139.77 182.257 164.465 150.475 168.045C138.347 169.396 131.99 164.72 130.383 162.967C128.703 161.14 128.447 161.031 127.826 161.396C126.803 161.944 127.461 163.588 127.826 164.538C128.776 167.022 132.685 171.406 139.297 173.561C145.142 175.46 159.352 176.52 176.558 169.871C195.81 162.419 210.86 141.706 206.44 124.354C202.02 106.746 172.795 100.938 145.142 110.764C128.703 116.609 110.876 125.815 98.0534 137.797C82.8201 152.044 80.409 164.428 81.3954 169.616C84.9388 188.027 110.328 200.009 120.483 208.886C119.972 209.178 119.497 209.434 119.095 209.653C114.017 212.174 94.656 222.293 89.834 232.996C84.3544 245.125 90.7107 253.819 94.9117 254.988C107.953 258.605 121.36 252.102 128.557 241.362C135.753 230.622 134.876 216.667 131.552 210.274C131.516 210.201 131.479 210.128 131.406 210.055C132.721 209.288 134.073 208.484 135.388 207.717C137.982 206.183 140.539 204.758 142.731 203.589C141.488 206.987 140.575 211.041 140.137 216.886C139.589 223.754 142.402 232.668 146.091 236.175C147.735 237.709 149.671 237.745 150.913 237.745C155.224 237.745 157.16 234.165 159.315 229.928C161.946 224.741 164.32 218.713 164.32 218.713C164.32 218.713 161.361 235.006 169.398 235.006C172.32 235.006 175.279 231.206 176.595 229.27C176.595 229.307 176.595 229.307 176.595 229.307C176.595 229.307 176.668 229.197 176.814 228.942C177.106 228.467 177.289 228.174 177.289 228.174C177.289 228.174 177.289 228.138 177.289 228.101C178.458 226.056 181.088 221.416 184.997 213.708C190.038 203.772 194.896 191.351 194.896 191.351C194.896 191.351 195.335 194.383 196.833 199.425C197.709 202.384 199.536 205.635 200.997 208.777C199.828 210.42 199.098 211.334 199.098 211.334C199.098 211.334 199.098 211.334 199.134 211.37C198.184 212.612 197.161 213.964 196.029 215.279C192.047 220.028 187.298 225.471 186.641 227.042C185.873 228.905 186.056 230.257 187.517 231.353C188.577 232.156 190.476 232.266 192.412 232.156C195.992 231.901 198.513 231.024 199.755 230.476C201.691 229.782 203.956 228.722 206.075 227.152C209.984 224.266 212.358 220.138 212.139 214.695C212.029 211.699 211.043 208.703 209.838 205.891C210.203 205.379 210.532 204.868 210.897 204.356C217.071 195.333 221.856 185.433 221.856 185.433C221.856 185.433 222.295 188.465 223.792 193.507C224.523 196.064 226.021 198.84 227.336 201.543C221.527 206.256 217.947 211.736 216.669 215.316C214.367 221.964 216.157 224.96 219.555 225.654C221.089 225.983 223.281 225.252 224.888 224.558C226.934 223.9 229.345 222.768 231.646 221.087C235.555 218.202 239.318 214.183 239.099 208.74C238.989 206.256 238.332 203.808 237.418 201.434C242.35 199.388 248.706 198.256 256.816 199.206C274.205 201.251 277.639 212.101 276.981 216.667C276.324 221.234 272.67 223.718 271.465 224.485C270.259 225.252 269.858 225.508 269.967 226.056C270.113 226.859 270.698 226.823 271.721 226.677C273.145 226.421 280.853 222.987 281.182 214.585C281.73 203.845 271.502 192.119 253.419 192.228ZM119.278 237.453C113.506 243.737 105.469 246.111 101.999 244.102C98.2726 241.947 99.7338 232.668 106.821 226.019C111.131 221.964 116.684 218.201 120.374 215.9C121.214 215.389 122.456 214.658 123.954 213.745C124.209 213.599 124.356 213.526 124.356 213.526C124.648 213.343 124.94 213.16 125.232 212.978C127.826 222.476 125.342 230.841 119.278 237.453ZM161.288 208.886C159.279 213.781 155.078 226.311 152.521 225.617C150.329 225.033 148.977 215.535 152.082 206.146C153.653 201.434 156.978 195.808 158.914 193.616C162.055 190.109 165.526 188.94 166.366 190.365C167.425 192.228 162.53 205.818 161.288 208.886ZM195.956 225.471C195.116 225.909 194.312 226.202 193.947 225.983C193.691 225.836 194.312 225.252 194.312 225.252C194.312 225.252 198.659 220.576 200.376 218.457C201.362 217.215 202.531 215.754 203.773 214.11C203.773 214.256 203.773 214.439 203.773 214.585C203.773 220.174 198.367 223.937 195.956 225.471ZM222.696 219.37C222.075 218.932 222.185 217.471 224.267 212.905C225.071 211.115 226.97 208.119 230.222 205.233C230.587 206.402 230.843 207.535 230.806 208.594C230.77 215.644 225.728 218.275 222.696 219.37Z" fill="#CD6799"/>
</svg>
