<svg width="362" height="362" viewBox="0 0 362 362" fill="none" xmlns="http://www.w3.org/2000/svg">
<rect x="0.942383" y="1.14453" width="360.342" height="360.342" rx="64.0608" fill="#181818"/>
<path d="M181.151 120.349C154.484 120.349 137.818 133.679 131.15 160.336C141.151 147.006 152.818 142.009 166.151 145.34C173.759 147.241 179.196 152.761 185.215 158.868C195.019 168.817 206.366 180.331 231.153 180.331C257.818 180.331 274.486 167.001 281.151 140.341C271.153 153.671 259.486 158.67 246.151 155.339C238.545 153.438 233.108 147.919 227.089 141.812C217.285 131.863 205.936 120.349 181.151 120.349V120.349ZM131.15 180.331C104.485 180.331 87.8164 193.661 81.1514 220.321C91.1501 206.991 102.817 201.992 116.152 205.325C123.757 207.229 129.194 212.746 135.214 218.85C145.018 228.799 156.367 240.316 181.151 240.316C207.819 240.316 224.485 226.986 231.153 200.326C221.151 213.656 209.484 218.655 196.152 215.322C188.544 213.423 183.107 207.901 177.087 201.797C167.284 191.848 155.937 180.331 131.15 180.331V180.331Z" fill="#06B6D4"/>
</svg>
