<svg width="361" height="361" viewBox="0 0 361 361" fill="none" xmlns="http://www.w3.org/2000/svg">
<rect x="0.134766" y="0.405212" width="360.342" height="360.342" rx="64.0608" fill="#181818"/>
<path d="M81.9023 151.066C81.9023 151.066 77.0311 147.555 82.8766 142.867L96.4958 130.688C96.4958 130.688 100.393 126.588 104.513 130.161L230.191 225.313V270.94C230.191 270.94 230.13 278.105 220.936 277.313L81.9023 151.066Z" fill="#2489CA"/>
<path d="M114.297 180.477L81.9032 209.928C81.9032 209.928 78.5746 212.404 81.9032 216.829L96.9433 230.509C96.9433 230.509 100.516 234.345 105.793 229.981L140.135 203.94L114.297 180.477Z" fill="#1070B3"/>
<path d="M171.169 180.721L230.578 135.357L230.192 89.973C230.192 89.973 227.655 80.0681 219.191 85.2235L140.135 157.176L171.169 180.721Z" fill="#0877B9"/>
<path d="M220.937 277.374C224.387 280.906 228.569 279.749 228.569 279.749L274.866 256.935C280.792 252.896 279.96 247.883 279.96 247.883V111.65C279.96 105.662 273.831 103.592 273.831 103.592L233.704 84.2491C224.935 78.8299 219.191 85.2234 219.191 85.2234C219.191 85.2234 226.579 79.9056 230.192 89.9729V270.108C230.192 271.346 229.928 272.564 229.401 273.66C228.345 275.791 226.052 277.78 220.551 276.948L220.937 277.374Z" fill="#3C99D4"/>
</svg>
