<svg width="427" height="342" viewBox="0 0 427 342" fill="none" xmlns="http://www.w3.org/2000/svg">
<path d="M316.255 149.567C346.073 149.568 375.393 149.46 404.71 149.615C420.452 149.699 430.787 164.439 425.082 178.546C421.822 186.606 415.667 191.246 406.842 191.962C405.02 192.109 403.18 192.066 401.348 192.066C275.911 192.07 150.475 192.081 25.0382 192.014C21.2618 192.012 17.2742 191.821 13.7503 190.634C4.10106 187.383 -1.27699 177.576 0.259953 167.141C1.65371 157.679 10.0357 150.193 19.9065 149.647C21.9002 149.536 23.9029 149.569 25.9015 149.569C122.519 149.566 219.137 149.567 316.255 149.567Z" fill="white"/>
<path d="M194.255 0.0622865C228.747 0.0623165 262.738 0.0339051 296.73 0.0773621C309.121 0.0932001 317.625 6.8923 319.562 18.1068C321.678 30.3574 312.537 41.9172 300.046 42.7659C298.884 42.8449 297.715 42.8199 296.548 42.8199C205.404 42.8221 114.26 42.8281 23.115 42.8151C9.44363 42.8131 -0.0160985 33.9896 0.0255275 21.3871C0.0645435 9.57391 8.97998 0.549378 21.2984 0.11171C27.4559 -0.10704 33.6274 0.0629425 39.7925 0.0628205C91.1133 0.0618895 142.434 0.0622865 194.255 0.0622865Z" fill="white"/>
<path d="M38.2549 341.574C32.2588 341.569 26.7553 341.743 21.2677 341.521C8.72238 341.016 -0.145904 331.815 0.033433 319.724C0.210908 307.759 9.52611 298.839 22.116 298.832C85.5734 298.795 149.031 298.794 212.488 298.833C224.846 298.841 234.111 307.6 234.459 319.327C234.82 331.485 226.144 340.753 213.636 341.53C211.977 341.633 210.306 341.573 208.641 341.573C152.012 341.574 95.3835 341.574 38.2549 341.574Z" fill="white"/>
</svg>
