<svg width="361" height="362" viewBox="0 0 361 362" fill="none" xmlns="http://www.w3.org/2000/svg">
<rect x="0.445312" y="1.06104" width="360.342" height="360.342" rx="64.0608" fill="#181818"/>
<path d="M276.33 171.338L189.008 84.0207C183.982 78.9918 175.826 78.9918 170.794 84.0207L152.661 102.154L175.663 125.156C181.009 123.35 187.138 124.561 191.399 128.822C195.68 133.111 196.884 139.293 195.034 144.655L217.202 166.824C222.565 164.976 228.753 166.171 233.037 170.462C239.023 176.446 239.023 186.146 233.037 192.134C227.048 198.123 217.349 198.123 211.358 192.134C206.855 187.626 205.742 181.013 208.022 175.465L187.348 154.792L187.346 209.196C188.845 209.937 190.213 210.916 191.399 212.094C197.386 218.079 197.386 227.779 191.399 233.771C185.411 239.757 175.707 239.757 169.727 233.771C163.741 227.779 163.741 218.079 169.727 212.095C171.162 210.66 172.867 209.523 174.744 208.75V153.839C172.864 153.072 171.158 151.935 169.727 150.495C165.191 145.965 164.101 139.31 166.425 133.74L143.75 111.063L83.875 170.934C78.8437 175.968 78.8437 184.125 83.875 189.154L171.198 276.473C176.226 281.503 184.38 281.503 189.414 276.473L276.329 189.56C281.359 184.529 281.359 176.367 276.329 171.338" fill="#DE4C36"/>
</svg>
