<svg width="362" height="361" viewBox="0 0 362 361" fill="none" xmlns="http://www.w3.org/2000/svg">
<rect x="0.942383" y="0.405762" width="360" height="360" rx="64.0608" fill="#181818"/>
<path d="M172.962 83.1337C177.921 80.2952 184.381 80.2824 189.335 83.1337C214.263 97.2189 239.198 111.282 264.12 125.376C268.808 128.016 271.944 133.233 271.896 138.635V223.376C271.931 229.001 268.485 234.343 263.54 236.924C238.695 250.931 213.862 264.956 189.021 278.963C183.96 281.857 177.371 281.634 172.467 278.503C165.019 274.185 157.557 269.889 150.108 265.575C148.586 264.667 146.87 263.945 145.795 262.469C146.745 261.188 148.444 261.029 149.824 260.47C152.934 259.481 155.789 257.894 158.646 256.354C159.368 255.86 160.25 256.049 160.942 256.491C167.312 260.143 173.625 263.902 180.016 267.519C181.379 268.306 182.759 267.261 183.925 266.611C208.306 252.832 232.716 239.104 257.093 225.32C257.996 224.886 258.495 223.927 258.422 222.938C258.439 194.983 258.426 167.024 258.431 139.069C258.534 137.946 257.884 136.914 256.869 136.455C232.11 122.511 207.364 108.547 182.609 94.5997C182.18 94.3049 181.672 94.1467 181.152 94.1459C180.631 94.1451 180.123 94.3019 179.693 94.5955C154.938 108.547 130.196 122.524 105.441 136.467C104.43 136.927 103.751 137.942 103.871 139.069C103.876 167.024 103.871 194.983 103.871 222.942C103.828 223.425 103.934 223.909 104.175 224.329C104.416 224.75 104.78 225.087 105.218 225.295C111.824 229.041 118.438 232.76 125.048 236.493C128.772 238.498 133.344 239.689 137.447 238.153C141.068 236.855 143.606 233.16 143.537 229.315C143.571 201.524 143.52 173.728 143.563 145.941C143.472 144.708 144.642 143.688 145.842 143.804C149.016 143.783 152.194 143.762 155.368 143.813C156.693 143.783 157.605 145.112 157.441 146.355C157.428 174.322 157.475 202.29 157.42 230.257C157.428 237.711 154.366 245.821 147.472 249.468C138.978 253.868 128.48 252.935 120.089 248.716C112.825 245.09 105.893 240.811 98.7577 236.927C93.7993 234.361 90.371 228.998 90.4059 223.377V138.635C90.3539 133.121 93.6141 127.81 98.4478 125.208C123.289 111.189 148.126 97.159 172.962 83.1337Z" fill="#8CC84B"/>
<path d="M194.633 141.835C205.468 141.137 217.066 141.422 226.816 146.759C234.364 150.849 238.549 159.433 238.682 167.819C238.471 168.95 237.289 169.574 236.209 169.497C233.065 169.492 229.921 169.539 226.778 169.475C225.444 169.526 224.669 168.297 224.502 167.118C223.599 163.106 221.411 159.132 217.634 157.196C211.836 154.294 205.114 154.44 198.793 154.5C194.178 154.745 189.215 155.145 185.305 157.859C182.303 159.915 181.392 164.064 182.463 167.407C183.473 169.806 186.243 170.581 188.51 171.294C201.566 174.709 215.402 174.369 228.209 178.863C233.512 180.695 238.699 184.257 240.514 189.809C242.888 197.249 241.847 206.143 236.553 212.117C232.26 217.032 226.008 219.708 219.771 221.161C211.475 223.011 202.866 223.058 194.44 222.236C186.518 221.333 178.274 219.252 172.158 213.854C166.928 209.313 164.374 202.238 164.628 195.409C164.688 194.256 165.836 193.451 166.941 193.546C170.107 193.521 173.272 193.512 176.438 193.55C177.702 193.46 178.639 194.553 178.704 195.744C179.288 199.567 180.725 203.58 184.059 205.846C190.492 209.997 198.565 209.713 205.931 209.829C212.034 209.558 218.885 209.476 223.866 205.442C226.494 203.142 227.272 199.292 226.562 195.981C225.793 193.185 222.868 191.882 220.356 191.03C207.467 186.953 193.477 188.433 180.712 183.822C175.53 181.99 170.519 178.528 168.528 173.204C165.75 165.669 167.023 156.349 172.872 150.578C178.575 144.836 186.807 142.625 194.633 141.834V141.835Z" fill="#8CC84B"/>
</svg>
