<svg width="362" height="362" viewBox="0 0 362 362" fill="none" xmlns="http://www.w3.org/2000/svg">
<rect x="0.932617" y="1.15161" width="360.342" height="360.342" rx="64.0608" fill="#181818"/>
<path d="M267.606 162.214C270.106 155.339 270.731 148.464 270.106 141.589C269.481 134.714 266.981 127.839 263.856 121.589C258.231 112.214 250.105 104.714 240.73 100.339C230.73 95.9644 220.105 94.7144 209.48 97.2144C204.48 92.2144 198.856 87.8394 192.606 84.7144C186.356 81.5894 178.855 80.3394 171.98 80.3394C161.355 80.3394 150.73 83.4644 141.98 89.7144C133.23 95.9644 126.98 104.714 123.855 114.714C116.355 116.589 110.105 119.714 103.855 123.464C98.2305 127.839 93.8555 133.464 90.1055 139.089C84.4805 148.464 82.6055 159.089 83.8555 169.714C85.1055 180.339 89.4805 190.339 96.3555 198.464C93.8555 205.339 93.2305 212.214 93.8555 219.089C94.4805 225.964 96.9805 232.839 100.105 239.089C105.73 248.464 113.855 255.964 123.23 260.339C133.23 264.714 143.855 265.964 154.48 263.464C159.48 268.464 165.105 272.839 171.355 275.964C177.605 279.089 185.106 280.339 191.981 280.339C202.606 280.339 213.23 277.214 221.98 270.964C230.73 264.714 236.98 255.964 240.105 245.964C246.98 244.714 253.855 241.589 259.48 237.214C265.105 232.839 270.106 227.839 273.231 221.589C278.856 212.214 280.731 201.589 279.481 190.964C278.231 180.339 274.481 170.339 267.606 162.214ZM192.606 267.214C182.606 267.214 175.105 264.089 168.23 258.464C168.23 258.464 168.855 257.839 169.48 257.839L209.48 234.714C210.73 234.089 211.355 233.464 211.98 232.214C212.605 230.964 212.605 230.339 212.605 229.089V172.839L229.481 182.839V229.089C230.106 250.964 212.606 267.214 192.606 267.214ZM111.98 232.839C107.605 225.339 105.73 216.589 107.605 207.839C107.605 207.839 108.23 208.464 108.855 208.464L148.855 231.589C150.105 232.214 150.73 232.214 151.98 232.214C153.23 232.214 154.48 232.214 155.105 231.589L203.856 203.464V222.839L163.23 246.589C154.48 251.589 144.48 252.839 135.105 250.339C125.105 247.839 116.98 241.589 111.98 232.839ZM101.355 145.964C105.73 138.464 112.605 132.839 120.73 129.714V130.964V177.214C120.73 178.464 120.73 179.714 121.355 180.339C121.98 181.589 122.605 182.214 123.855 182.839L172.605 210.964L155.73 220.964L115.73 197.839C106.98 192.839 100.73 184.714 98.2305 175.339C95.7305 165.964 96.3555 154.714 101.355 145.964ZM239.481 177.839L190.73 149.714L207.606 139.714L247.606 162.839C253.856 166.589 258.855 171.589 261.98 177.839C265.105 184.089 266.981 190.964 266.356 198.464C265.731 205.339 263.23 212.214 258.855 217.839C254.48 223.464 248.856 227.839 241.981 230.339V182.839C241.981 181.589 241.981 180.339 241.356 179.714C241.356 179.714 240.731 178.464 239.481 177.839ZM256.355 152.839C256.355 152.839 255.731 152.214 255.106 152.214L215.105 129.089C213.855 128.464 213.23 128.464 211.98 128.464C210.73 128.464 209.48 128.464 208.855 129.089L160.105 157.214V137.839L200.731 114.089C206.981 110.339 213.855 109.089 221.355 109.089C228.23 109.089 235.106 111.589 241.356 115.964C246.981 120.339 251.981 125.964 254.481 132.214C256.981 138.464 257.605 145.964 256.355 152.839ZM151.355 187.839L134.48 177.839V130.964C134.48 124.089 136.355 116.589 140.105 110.964C143.855 104.714 149.48 100.339 155.73 97.2144C161.98 94.0894 169.48 92.8394 176.355 94.0894C183.23 94.7144 190.106 97.8394 195.731 102.214C195.731 102.214 195.106 102.839 194.481 102.839L154.48 125.964C153.23 126.589 152.605 127.214 151.98 128.464C151.355 129.714 151.355 130.339 151.355 131.589V187.839ZM160.105 167.839L181.98 155.339L203.856 167.839V192.839L181.98 205.339L160.105 192.839V167.839Z" fill="#FF8BFF"/>
</svg>
