<svg width="362" height="362" viewBox="0 0 362 362" fill="none" xmlns="http://www.w3.org/2000/svg">
<rect x="0.84082" y="0.89502" width="360.342" height="360.342" rx="64.0608" fill="#181818"/>
<path d="M180.329 80.6025C129.557 80.6025 132.727 102.621 132.727 102.621L132.783 125.432H181.235V132.28H113.539C113.539 132.28 81.0498 128.596 81.0498 179.825C81.0498 231.055 109.407 229.239 109.407 229.239H126.331V205.466C126.331 205.466 125.419 177.108 154.236 177.108H202.291C202.291 177.108 229.29 177.544 229.29 151.015V107.149C229.29 107.149 233.39 80.6025 180.329 80.6025ZM153.613 95.9427C154.758 95.9416 155.892 96.1664 156.95 96.6041C158.008 97.0417 158.969 97.6837 159.779 98.4933C160.588 99.3029 161.23 100.264 161.668 101.322C162.106 102.38 162.331 103.514 162.33 104.659C162.331 105.804 162.106 106.938 161.668 107.996C161.23 109.054 160.588 110.015 159.779 110.825C158.969 111.634 158.008 112.276 156.95 112.714C155.892 113.152 154.758 113.376 153.613 113.375C152.468 113.376 151.334 113.152 150.276 112.714C149.218 112.276 148.257 111.634 147.448 110.825C146.638 110.015 145.996 109.054 145.558 107.996C145.121 106.938 144.896 105.804 144.897 104.659C144.896 103.514 145.121 102.38 145.558 101.322C145.996 100.264 146.638 99.3029 147.448 98.4933C148.257 97.6837 149.218 97.0417 150.276 96.6041C151.334 96.1664 152.468 95.9416 153.613 95.9427V95.9427Z" fill="url(#paint0_linear_301_8808)"/>
<path d="M181.771 279.563C232.543 279.563 229.373 257.545 229.373 257.545L229.317 234.734H180.865V227.886H248.56C248.56 227.886 281.05 231.57 281.05 180.339C281.05 129.11 252.692 130.926 252.692 130.926H235.768V154.699C235.768 154.699 236.681 183.056 207.864 183.056H159.809C159.809 183.056 132.81 182.62 132.81 209.15V253.017C132.81 253.017 128.71 279.563 181.77 279.563H181.771ZM208.487 264.224C207.342 264.225 206.208 264 205.15 263.563C204.092 263.125 203.131 262.483 202.321 261.673C201.512 260.864 200.87 259.903 200.432 258.845C199.994 257.787 199.77 256.653 199.771 255.508C199.769 254.363 199.994 253.229 200.432 252.171C200.869 251.113 201.511 250.151 202.321 249.341C203.131 248.532 204.092 247.89 205.15 247.452C206.208 247.014 207.342 246.79 208.487 246.791C209.632 246.79 210.766 247.014 211.824 247.452C212.882 247.89 213.843 248.532 214.653 249.341C215.462 250.151 216.104 251.112 216.542 252.17C216.98 253.228 217.204 254.362 217.203 255.507C217.204 256.652 216.98 257.786 216.542 258.844C216.104 259.902 215.462 260.863 214.653 261.673C213.843 262.482 212.882 263.124 211.824 263.562C210.766 264 209.632 264.224 208.487 264.223V264.224Z" fill="url(#paint1_linear_301_8808)"/>
<defs>
<linearGradient id="paint0_linear_301_8808" x1="100.27" y1="98.4978" x2="199.384" y2="196.623" gradientUnits="userSpaceOnUse">
<stop stop-color="#387EB8"/>
<stop offset="1" stop-color="#366994"/>
</linearGradient>
<linearGradient id="paint1_linear_301_8808" x1="161.106" y1="161.508" x2="267.543" y2="262.126" gradientUnits="userSpaceOnUse">
<stop stop-color="#FFE052"/>
<stop offset="1" stop-color="#FFC331"/>
</linearGradient>
</defs>
</svg>
