<svg width="361" height="362" viewBox="0 0 361 362" fill="none" xmlns="http://www.w3.org/2000/svg">
<rect x="0.134766" y="0.812256" width="360.342" height="360.342" rx="64.0608" fill="#181818"/>
<path fill-rule="evenodd" clip-rule="evenodd" d="M121.541 100.339C110.129 100.339 101.685 110.327 102.063 121.159C102.426 131.566 101.954 145.044 98.5613 156.036C95.1562 167.058 89.4016 174.043 80 174.939V185.061C89.4016 185.959 95.1562 192.941 98.5609 203.965C101.954 214.956 102.425 228.434 102.062 238.841C101.684 249.671 110.129 259.661 121.542 259.661H238.475C249.886 259.661 258.329 249.673 257.951 238.841C257.588 228.434 258.059 214.956 261.452 203.965C264.857 192.941 270.598 185.957 280 185.061V174.939C270.598 174.041 264.858 167.059 261.452 156.036C258.059 145.046 257.588 131.566 257.951 121.159C258.329 110.329 249.886 100.339 238.475 100.339H121.539H121.541ZM215.593 198.412C215.593 213.327 204.468 222.373 186.005 222.373H154.576C153.677 222.373 152.815 222.016 152.179 221.38C151.543 220.745 151.186 219.882 151.186 218.983V141.017C151.186 140.118 151.543 139.256 152.179 138.62C152.815 137.985 153.677 137.627 154.576 137.627H185.826C201.221 137.627 211.325 145.966 211.325 158.77C211.325 167.756 204.528 175.801 195.869 177.21V177.679C207.656 178.972 215.593 187.136 215.593 198.412V198.412ZM182.578 148.373H164.658V173.686H179.751C191.419 173.686 197.853 168.987 197.853 160.589C197.852 152.719 192.32 148.373 182.578 148.373ZM164.658 183.729V211.624H183.237C195.386 211.624 201.821 206.749 201.821 197.588C201.821 188.427 195.205 183.727 182.456 183.727H164.658V183.729Z" fill="#7952B3"/>
</svg>
