<svg width="361" height="360" viewBox="0 0 361 360" fill="none" xmlns="http://www.w3.org/2000/svg">
<rect x="0.791016" width="360" height="360" rx="64" fill="#181818"/>
<path d="M147.667 280C166.067 280 181.001 265.067 181.001 246.667V213.333H147.667C129.267 213.333 114.334 228.267 114.334 246.667C114.334 265.067 129.267 280 147.667 280Z" fill="#0ACF83"/>
<path d="M114.334 180C114.334 161.6 129.267 146.667 147.667 146.667H181.001V213.333H147.667C129.267 213.333 114.334 198.4 114.334 180Z" fill="#A259FF"/>
<path d="M114.334 113.333C114.334 94.9333 129.267 80 147.667 80H181.001V146.667H147.667C129.267 146.667 114.334 131.733 114.334 113.333Z" fill="#F24E1E"/>
<path d="M181 80H214.333C232.733 80 247.667 94.9333 247.667 113.333C247.667 131.733 232.733 146.667 214.333 146.667H181V80Z" fill="#FF7262"/>
<path d="M247.667 180C247.667 198.4 232.733 213.333 214.333 213.333C195.933 213.333 181 198.4 181 180C181 161.6 195.933 146.667 214.333 146.667C232.733 146.667 247.667 161.6 247.667 180Z" fill="#1ABCFE"/>
</svg>
