<svg width="361" height="361" viewBox="0 0 361 361" fill="none" xmlns="http://www.w3.org/2000/svg">
<rect x="0.448242" y="0.811523" width="360" height="360" rx="64" fill="#181818"/>
<path d="M180.83 228.875C225.078 289.194 268.38 212.039 268.316 165.641C268.242 110.784 212.641 80.125 180.795 80.125C129.679 80.1242 81 122.369 81 180.169C81 244.414 136.801 280 180.795 280C170.839 278.566 137.662 271.458 137.216 195.041C136.916 143.359 154.076 122.709 180.723 131.793C181.32 132.014 210.115 143.373 210.115 180.48C210.115 217.43 180.83 228.874 180.83 228.874V228.875Z" fill="url(#paint0_linear_301_8869)"/>
<path d="M180.779 131.751C151.541 121.673 115.725 145.771 115.725 194.037C115.725 272.847 174.125 280 181.205 280C232.321 280 281 237.755 281 179.955C281 115.71 225.199 80.1242 181.205 80.1242C193.39 78.4367 246.881 93.3116 246.881 166.419C246.881 214.096 206.94 240.051 180.962 228.962C180.365 228.74 151.569 217.381 151.569 180.274C151.569 143.323 180.779 131.751 180.779 131.751V131.751Z" fill="url(#paint1_linear_301_8869)"/>
<defs>
<linearGradient id="paint0_linear_301_8869" x1="110.579" y1="109.581" x2="259.978" y2="240.793" gradientUnits="userSpaceOnUse">
<stop/>
<stop offset="1" stop-color="white"/>
</linearGradient>
<linearGradient id="paint1_linear_301_8869" x1="251.475" y1="250.474" x2="89.7728" y2="140.049" gradientUnits="userSpaceOnUse">
<stop/>
<stop offset="1" stop-color="white"/>
</linearGradient>
</defs>
</svg>
